<?xml version="1.0" standalone="no"?>
<!DOCTYPE svg PUBLIC "-//W3C//DTD SVG 20010904//EN"
 "http://www.w3.org/TR/2001/REC-SVG-20010904/DTD/svg10.dtd">
<svg version="1.0" xmlns="http://www.w3.org/2000/svg"
 width="200.000000pt" height="200.000000pt" viewBox="0 0 200.000000 200.000000"
 preserveAspectRatio="xMidYMid meet">
<metadata>
Created by potrace 1.10, written by Peter Selinger 2001-2011
</metadata>
<g transform="translate(0.000000,200.000000) scale(0.100000,-0.100000)"
fill="#ffffff" stroke="none">
<path d="M996 1303 c-689 -3 -761 -5 -778 -20 -17 -15 -18 -38 -18 -296 0
-274 0 -280 22 -298 15 -14 37 -19 75 -19 97 0 137 27 270 184 204 239 297
301 448 301 65 -1 91 -6 139 -28 84 -39 173 -115 275 -236 110 -131 177 -197
214 -210 39 -15 130 -14 151 2 16 12 18 36 17 307 -1 263 -3 296 -18 308 -9 6
-22 11 -27 10 -6 -2 -353 -4 -770 -5z m792 -28 c5 -5 3 -568 -3 -573 -3 -3
-33 -5 -67 -4 -77 2 -114 25 -206 132 -144 167 -185 211 -245 256 -104 79
-194 106 -299 92 -129 -17 -232 -93 -411 -303 -121 -141 -166 -176 -236 -183
-82 -8 -121 32 -90 90 8 15 8 19 0 14 -14 -9 -16 447 -2 472 8 16 65 17 783
14 425 -2 774 -5 776 -7z"/>
<path d="M915 1101 c-53 -15 -85 -30 -85 -41 0 -13 6 -13 32 1 41 22 124 12
188 -22 58 -31 104 -74 262 -251 82 -91 115 -112 191 -122 50 -6 65 8 25 23
-32 13 -70 51 -171 171 -147 175 -237 237 -350 245 -34 2 -75 0 -92 -4z m202
-51 c60 -30 141 -106 248 -235 28 -32 62 -72 77 -87 23 -24 24 -28 8 -28 -25
0 -70 40 -142 124 -102 120 -181 197 -233 227 -66 38 -35 37 42 -1z"/>
<path d="M860 1023 c0 -6 17 -13 38 -17 55 -8 107 -50 205 -163 112 -130 133
-148 194 -168 63 -20 105 -16 58 5 -48 23 -65 39 -176 165 -119 135 -173 173
-264 182 -34 4 -55 2 -55 -4z m235 -118 c50 -51 149 -166 158 -183 12 -22 -81
73 -163 168 -62 71 -59 80 5 15z"/>
</g>
</svg>
