 <svg  version="1.0" xmlns="http://www.w3.org/2000/svg"  width="300.000000pt" height="300.000000pt" viewBox="0 0 300.000000 300.000000"  preserveAspectRatio="xMidYMid meet">  <g transform="translate(0.000000,300.000000) scale(0.100000,-0.100000)" fill="#ffffff" stroke="none"> <path d="M1509 2894 c-47 -35 -91 -56 -179 -87 -261 -90 -467 -73 -807 66 l-62 25 -25 -38 c-49 -75 -127 -222 -170 -323 -45 -105 -120 -327 -132 -392 l-6 -35 1392 0 c1320 0 1391 1 1386 18 -3 9 -12 50 -21 91 -27 131 -56 234 -92 331 -43 115 -152 340 -168 346 -7 3 -43 -7 -81 -21 -276 -106 -469 -133 -644 -90 -73 18 -316 109 -334 126 -14 13 -19 12 -57 -17z m201 -84 c3 -3 43 -17 90 -29 47 -13 99 -28 115 -33 17 -6 82 -11 145 -13 114 -3 183 7 290 41 25 8 52 16 60 18 8 1 22 5 30 8 89 36 165 57 175 48 16 -14 95 -175 95 -194 0 -9 4 -16 8 -16 5 0 15 -19 21 -42 7 -24 17 -47 21 -53 7 -10 37 -95 45 -131 2 -10 13 -53 24 -94 11 -41 21 -97 23 -125 l3 -50 -1329 0 c-1380 -1 -1364 -1 -1351 38 53 170 70 217 90 262 14 29 25 58 25 64 0 5 6 22 14 38 8 15 29 59 47 98 19 38 40 75 47 83 6 7 12 17 12 22 0 13 49 84 64 92 14 8 107 -21 118 -37 4 -5 10 -6 14 -3 3 4 20 0 36 -8 24 -12 116 -38 253 -71 38 -9 253 -5 286 5 19 6 81 26 139 44 58 18 108 31 113 30 4 -1 7 3 7 8 0 6 6 10 14 10 8 0 21 6 28 13 47 46 54 46 141 14 45 -16 84 -33 87 -37z"/> <path d="M103 1980 c-4 -25 -8 -144 -8 -265 0 -305 27 -428 157 -707 37 -79 42 -86 62 -78 11 5 66 26 121 46 55 20 129 50 164 66 35 16 71 27 80 25 22 -5 -195 -109 -289 -138 -41 -13 -77 -24 -79 -26 -2 -1 27 -49 65 -105 49 -75 108 -143 216 -251 l149 -149 54 46 c29 25 58 46 63 46 5 0 29 -8 51 -19 l42 -18 -61 -55 -61 -56 78 -49 c152 -98 397 -204 526 -228 74 -14 408 129 614 264 185 120 388 304 504 456 57 74 149 215 178 273 l22 43 -36 55 c-59 88 -149 196 -220 262 -61 58 -78 82 -55 82 29 0 266 -267 309 -349 7 -13 16 -19 20 -15 14 15 89 227 104 294 9 36 21 90 28 120 9 35 13 131 14 265 l0 210 -590 2 c-589 2 -590 2 -565 -17 23 -18 38 -20 183 -18 l159 3 -5 -30 c-3 -16 -24 -82 -47 -146 l-41 -115 -100 -1 -101 0 6 41 6 41 -60 -5 -61 -5 -23 -58 c-15 -34 -20 -60 -14 -63 14 -9 23 5 37 54 11 40 14 42 50 42 38 0 38 0 37 -40 l-1 -40 -28 30 c-34 37 -44 33 -23 -8 14 -27 20 -29 90 -35 110 -10 137 -33 138 -118 1 -70 -76 -289 -122 -348 -64 -80 -93 -88 -372 -94 -177 -4 -238 -2 -238 6 0 7 22 75 49 152 l49 140 117 3 c109 3 116 2 111 -15 -3 -10 -8 -30 -12 -45 l-6 -28 60 0 59 0 23 63 c13 34 25 67 27 74 3 8 -24 10 -104 8 -59 -2 -124 0 -143 5 -50 13 -74 57 -67 119 7 60 60 222 90 276 l24 41 -46 62 -46 62 -77 0 c-60 0 -78 -3 -78 -14 0 -7 13 -19 29 -26 64 -26 66 -121 5 -289 -46 -128 -85 -188 -144 -221 -40 -22 -60 -26 -179 -30 l-133 -5 -24 -62 c-13 -35 -20 -63 -16 -64 4 -1 20 0 35 1 32 2 32 0 -13 -135 l-27 -80 -196 -5 c-231 -6 -218 -16 -163 127 33 85 35 88 64 85 17 -2 33 1 36 6 9 14 166 456 166 467 0 3 -11 3 -24 -1 -13 -3 -27 -1 -30 5 -4 5 8 55 26 110 l33 101 267 0 c148 0 268 4 268 9 0 29 -34 31 -578 29 l-551 -2 -8 -46z m574 2 c1 -1 -11 -38 -27 -83 -36 -96 -39 -139 -10 -146 11 -3 20 -8 20 -11 0 -9 -60 -194 -72 -222 -6 -14 -12 -30 -14 -36 -1 -6 -12 -38 -24 -70 -18 -52 -27 -63 -63 -80 -41 -19 -42 -21 -81 -137 -34 -100 -38 -120 -26 -127 8 -6 54 -10 103 -10 48 0 87 -4 87 -9 0 -8 -53 -25 -77 -24 -7 0 -13 -3 -13 -8 0 -5 -7 -5 -17 -2 -11 4 -14 3 -9 -5 5 -8 -1 -12 -16 -12 -13 0 -40 -9 -61 -19 -20 -10 -37 -14 -37 -9 0 6 -6 8 -13 5 -16 -6 -51 48 -42 63 4 6 1 9 -7 8 -7 -2 -12 3 -10 11 2 8 -1 17 -6 20 -22 14 -92 222 -107 316 -9 55 -20 116 -24 136 -12 55 -12 296 1 377 6 39 11 73 12 73 9 12 518 12 533 1z m715 7 c34 -15 81 -86 75 -112 -3 -12 -19 -55 -36 -96 -40 -94 -61 -176 -61 -236 0 -43 4 -52 38 -85 l39 -36 -59 0 c-46 -1 -63 -5 -78 -21 -10 -12 -17 -23 -14 -25 6 -6 -57 -161 -70 -173 -6 -5 -13 -36 -14 -67 -3 -55 -2 -58 24 -68 15 -6 57 -10 93 -9 133 2 156 0 139 -13 -24 -20 -52 -68 -39 -68 6 0 11 -5 11 -11 0 -6 -7 -9 -15 -5 -11 4 -15 -1 -15 -17 0 -13 -6 -31 -13 -41 -13 -17 -15 -15 -30 22 -23 56 -57 78 -105 66 -30 -7 -38 -14 -40 -37 -2 -16 3 -36 10 -45 11 -13 11 -14 0 -8 -11 7 -11 4 -1 -12 14 -22 5 -56 -14 -50 -6 3 -28 33 -47 68 -43 78 -72 98 -126 85 -34 -9 -44 -19 -86 -90 -26 -44 -55 -89 -65 -99 -10 -11 -12 -16 -6 -12 9 5 11 2 7 -8 -3 -9 -9 -16 -13 -16 -4 0 -8 -13 -9 -28 -2 -22 4 -31 23 -40 37 -17 71 -15 91 6 10 9 21 17 25 17 4 0 11 3 15 7 11 11 44 10 44 -1 0 -6 -5 -13 -12 -17 -7 -4 -8 -3 -4 4 4 6 -17 -12 -47 -41 -75 -72 -83 -89 -52 -115 47 -41 77 -51 110 -37 28 11 120 101 155 151 8 11 29 29 47 39 29 17 32 17 48 2 9 -10 22 -18 28 -18 7 -1 25 -3 41 -5 21 -2 36 5 57 26 16 16 29 36 29 44 0 9 4 16 8 16 5 0 14 18 21 40 18 60 31 58 32 -4 1 -31 3 -60 4 -66 1 -5 3 -14 4 -20 2 -14 53 -38 74 -34 10 1 27 10 37 19 17 16 21 16 42 1 42 -30 80 -17 115 40 11 18 11 18 8 -4 -2 -13 0 -20 6 -16 6 3 16 -2 23 -12 7 -9 24 -19 37 -21 13 -1 34 -5 45 -8 14 -3 31 4 48 20 15 14 24 25 21 25 -3 0 -3 5 0 11 5 7 15 5 30 -5 64 -42 92 -52 145 -50 132 2 151 22 149 150 -2 75 -5 90 -26 114 -32 38 -81 53 -146 45 -58 -8 -91 -25 -124 -64 l-23 -26 0 27 c0 39 -26 60 -69 56 -30 -2 -39 -9 -52 -36 l-15 -34 -28 36 c-25 33 -31 36 -77 36 -36 0 -54 -5 -65 -19 -16 -18 -17 -18 -35 0 -11 11 -28 19 -39 19 -11 0 -20 5 -20 10 0 14 42 54 60 57 98 14 154 44 205 110 24 32 48 87 81 186 46 142 46 144 28 241 -4 24 -33 56 -51 56 -7 0 -13 5 -13 10 0 6 26 10 59 10 59 0 59 0 71 36 11 32 39 44 32 13 -2 -8 -1 -11 3 -8 3 4 21 -6 38 -22 18 -17 42 -32 55 -35 12 -4 22 -11 22 -16 0 -16 -60 -181 -70 -193 -6 -7 -8 -14 -5 -17 8 -7 -23 -75 -37 -85 -7 -4 -22 -9 -32 -10 -29 -5 -44 -21 -52 -56 -3 -18 -15 -49 -26 -70 -10 -21 -16 -42 -13 -47 3 -6 2 -10 -3 -10 -14 0 -13 -73 1 -82 21 -14 381 -10 399 4 22 17 81 194 73 218 -4 11 -13 27 -22 35 -13 14 -13 21 3 70 15 49 18 53 29 38 7 -10 39 -45 71 -78 64 -65 164 -192 164 -207 0 -5 7 -16 15 -24 8 -9 15 -25 15 -36 0 -25 -89 -172 -165 -273 -87 -117 -301 -325 -375 -366 -16 -9 -26 -20 -22 -24 4 -5 -2 -5 -13 -1 -11 4 -16 4 -13 0 20 -20 -248 -177 -439 -258 -193 -82 -223 -84 -373 -31 -159 57 -390 178 -390 204 0 9 14 31 30 50 17 18 30 39 30 45 0 23 -32 57 -68 72 -33 14 -40 13 -74 -2 -21 -9 -38 -20 -38 -23 0 -3 -9 -12 -21 -19 -18 -12 -25 -10 -57 14 -20 16 -40 32 -43 36 -3 4 -20 19 -39 33 -19 14 -30 25 -26 25 5 0 -3 9 -17 20 -33 26 -150 173 -201 251 l-18 29 33 14 c19 8 39 15 44 16 6 1 19 7 30 13 11 6 25 12 30 13 6 1 28 12 50 25 21 13 46 24 54 26 8 1 17 6 20 11 3 5 21 17 39 26 17 9 32 20 32 25 0 4 16 8 36 9 55 2 73 11 89 41 9 18 30 34 60 45 25 10 43 22 39 27 -3 5 1 9 9 9 8 0 33 18 56 40 22 22 41 37 41 34 0 -5 42 43 91 104 10 11 20 30 24 43 4 16 -19 -3 -72 -57 -68 -71 -218 -194 -236 -194 -18 0 11 34 61 71 32 24 97 83 145 131 48 48 96 88 106 88 25 0 95 70 119 117 11 21 36 88 57 150 37 113 38 118 23 233 -2 14 -9 29 -16 33 -7 5 -10 12 -7 18 8 12 39 12 67 -2z m835 -7 c9 -6 5 -27 -17 -87 -36 -94 -36 -138 -2 -143 18 -3 21 -6 12 -17 -9 -11 -19 -8 -56 18 -24 17 -44 35 -44 40 0 4 -4 6 -9 2 -5 -3 -12 -1 -16 5 -4 6 -10 8 -15 5 -8 -5 5 42 33 120 8 22 12 46 10 53 -5 14 83 17 104 4z m413 -11 c0 -11 -14 -58 -31 -105 -30 -83 -31 -85 -66 -88 l-35 -3 -79 -225 c-43 -124 -78 -229 -79 -233 0 -5 12 -7 28 -5 24 3 27 0 24 -22 -3 -27 -51 -171 -61 -182 -3 -4 -89 -8 -191 -8 -213 -2 -195 -16 -152 122 l27 88 36 0 c41 0 24 -36 140 295 28 83 54 156 56 163 4 8 -5 12 -25 12 -38 0 -38 13 3 127 l30 83 188 0 c179 0 187 -1 187 -19z m235 7 c3 -7 6 -27 8 -43 2 -17 7 -36 11 -43 4 -7 3 -12 -2 -12 -5 0 -6 -20 -2 -45 4 -25 4 -45 1 -45 -3 0 -7 -33 -9 -73 -3 -82 -28 -245 -45 -297 -6 -19 -12 -42 -13 -51 -1 -9 -9 -31 -18 -49 -9 -18 -16 -39 -16 -45 0 -7 -8 -23 -19 -36 -15 -19 -21 -21 -33 -11 -8 6 -19 8 -23 4 -5 -4 -5 -1 -1 6 10 16 -55 107 -108 151 -20 17 -36 34 -62 66 -8 11 -12 13 -8 5 3 -8 -5 -3 -19 12 -15 14 -36 29 -47 33 -26 8 -25 11 18 135 36 102 38 105 73 113 31 7 39 15 52 50 42 115 58 168 53 176 -3 5 41 9 99 10 78 2 106 -1 110 -11z m-739 -234 c69 -49 78 -59 69 -73 -7 -12 -145 89 -145 106 0 19 6 17 76 -33z m-476 -331 c0 -5 -9 -22 -20 -40 -20 -34 -60 -42 -60 -13 0 9 -7 26 -16 38 -15 22 -15 22 40 22 31 0 56 -3 56 -7z m-610 -10 c0 -6 -66 -72 -135 -135 l-40 -36 0 40 c0 27 -6 43 -18 49 -19 11 -22 41 -7 70 9 17 22 19 105 19 52 0 95 -3 95 -7z m525 -372 c-32 -31 -49 -40 -88 -44 l-49 -5 49 44 c39 35 55 43 88 44 l40 0 -40 -39z m685 -81 c40 -27 38 -50 -3 -50 -19 0 -40 7 -47 15 -18 22 -73 19 -95 -5 -11 -12 -19 -36 -19 -55 0 -49 27 -75 81 -75 39 0 43 2 43 25 0 22 -3 24 -30 19 -27 -6 -30 -4 -30 20 0 25 2 26 65 26 l65 0 0 -60 c0 -57 -1 -60 -27 -67 -16 -4 -57 -7 -93 -7 -108 0 -158 46 -144 135 7 42 44 87 78 94 73 16 119 11 156 -15z m-1097 -105 c31 -65 56 -119 55 -120 -2 -1 -20 0 -41 3 -27 3 -41 11 -46 24 -6 17 -18 21 -74 23 -64 2 -66 1 -78 -26 -10 -25 -17 -29 -51 -29 -39 0 -40 1 -26 23 8 12 36 63 63 112 62 116 59 112 102 110 l38 -2 58 -118z m182 48 c15 -43 29 -85 32 -93 6 -17 4 -20 52 95 28 67 31 70 65 73 20 2 36 2 36 0 0 -2 -21 -46 -46 -98 -26 -52 -50 -105 -55 -117 -7 -19 -16 -23 -51 -23 l-43 0 -29 78 c-16 42 -37 95 -47 116 -11 22 -19 41 -19 43 0 2 17 3 39 3 l38 0 28 -77z m293 -43 l-3 -120 -38 0 c-32 0 -38 3 -33 16 3 9 6 63 6 120 l0 104 36 0 35 0 -3 -120z m217 31 l50 -84 3 87 3 86 29 0 30 0 -1 -120 -1 -119 -46 2 c-45 1 -46 2 -94 76 -26 40 -48 77 -48 82 0 5 -3 9 -7 9 -5 0 -6 -38 -4 -85 l3 -85 -37 0 c-30 0 -36 3 -31 16 3 9 6 63 6 120 l0 105 48 -3 47 -3 50 -84z m-572 -78 c4 -21 0 -34 -17 -51 l-23 -23 -13 31 c-11 27 -10 33 5 50 25 28 42 25 48 -7z m-76 -103 c-1 -3 -38 -39 -82 -81 l-80 -77 -42 22 c-23 11 -41 24 -40 28 1 3 34 30 72 60 65 50 74 54 122 53 29 0 52 -2 50 -5z"/> <path d="M680 992 c-54 -4 -59 -8 -65 -53 -8 -59 -7 -221 2 -229 4 -4 22 -12 40 -18 39 -13 65 3 89 54 13 28 22 34 37 30 24 -6 77 19 97 48 24 34 28 60 13 97 -24 61 -81 80 -213 71z m170 -54 c27 -30 26 -73 -5 -103 -20 -21 -34 -25 -85 -25 l-61 0 7 -45 6 -45 -36 0 -37 0 2 120 2 120 93 0 c83 0 95 -2 114 -22z"/> <path d="M710 882 c0 -33 1 -34 31 -28 17 3 38 6 46 6 9 0 13 8 11 23 -2 18 -11 23 -45 28 l-43 5 0 -34z"/> <path d="M2575 1930 c-15 -16 -28 -39 -29 -52 -1 -20 -6 -23 -41 -23 l-40 0 -24 -75 c-14 -41 -28 -77 -31 -80 -3 -3 -7 -16 -7 -29 -1 -13 -6 -27 -11 -30 -5 -3 -12 -24 -16 -46 -8 -47 -43 -144 -58 -162 -6 -7 -8 -13 -4 -13 3 0 -5 -23 -20 -51 -26 -53 -26 -83 2 -77 17 3 38 56 120 298 72 210 81 230 114 230 15 0 32 6 37 13 13 16 46 117 41 123 -3 2 -17 -9 -33 -26z"/> <path d="M2259 1840 l-24 -20 35 2 c24 2 36 8 38 21 5 23 -20 22 -49 -3z"/> <path d="M2332 1247 c-12 -13 -22 -36 -22 -51 0 -24 -3 -27 -23 -22 -12 3 -69 6 -125 7 -85 1 -107 -2 -130 -17 -27 -19 -27 -19 127 -22 100 -2 158 1 166 8 12 10 45 92 45 112 0 15 -16 8 -38 -15z"/> <path d="M1041 872 c-12 -23 -21 -44 -21 -47 0 -3 18 -5 40 -5 22 0 40 2 40 4 0 2 -9 23 -19 46 l-19 43 -21 -41z"/> <path d="M1500 2020 c0 -3 14 -20 30 -38 30 -32 30 -32 57 -15 15 10 54 20 88 23 51 4 57 7 40 16 -20 12 -215 25 -215 14z"/> <path d="M1220 1959 c0 -6 6 -9 13 -6 7 3 21 -1 32 -9 25 -19 22 -70 -10 -157 -13 -37 -22 -67 -20 -67 2 0 -3 -17 -12 -37 -21 -52 -75 -133 -85 -127 -4 3 -20 -3 -35 -13 -22 -14 -55 -19 -167 -23 l-141 -5 -13 -28 c-7 -15 -16 -44 -19 -65 -3 -20 -12 -44 -20 -53 -8 -9 -17 -33 -20 -53 -5 -32 -3 -36 15 -36 17 0 25 11 38 58 9 31 25 76 35 100 l18 42 126 0 c138 0 178 10 228 58 37 35 49 58 97 193 49 136 52 188 14 218 -28 22 -74 28 -74 10z"/> <path d="M1660 1960 c-11 -7 3 -10 48 -10 34 0 62 4 62 8 0 12 -92 14 -110 2z"/> <path d="M2055 1952 c-42 -29 -85 -124 -76 -166 1 -5 -15 -6 -35 -3 -38 6 -105 -18 -88 -32 5 -4 39 -5 76 -3 61 3 67 6 76 30 65 173 70 190 47 174z"/> <path d="M1826 1872 c-3 -3 -43 -6 -88 -7 l-83 -2 -27 -79 c-14 -43 -31 -87 -37 -96 -13 -21 -14 -55 -2 -62 17 -11 39 22 65 99 16 44 31 83 35 87 3 4 43 8 89 9 45 1 80 4 78 7 -3 2 -1 13 4 22 7 14 5 19 -10 23 -10 3 -21 2 -24 -1z"/> <path d="M992 1863 c-84 -4 -89 -6 -95 -48 -1 -11 -5 -25 -9 -30 -3 -6 -9 -28 -13 -50 -4 -22 -16 -54 -26 -71 -22 -36 -24 -60 -7 -70 17 -11 36 22 63 109 39 121 34 117 119 117 52 0 77 4 86 15 14 17 5 36 -18 33 -9 -1 -54 -4 -100 -5z"/> <path d="M700 1840 l-25 -20 31 0 c31 0 60 21 47 33 -11 11 -27 7 -53 -13z"/> <path d="M1012 1780 l-54 -5 -29 -75 c-16 -41 -29 -76 -29 -78 0 -2 28 -2 62 0 l61 3 24 70 c13 39 22 75 21 80 -2 6 -25 8 -56 5z m18 -45 c0 -8 -4 -23 -9 -33 -5 -9 -12 -25 -15 -34 -7 -23 -56 -25 -56 -3 0 9 7 31 14 50 12 27 21 35 40 35 17 0 26 -6 26 -15z"/> <path d="M1917 1604 c-4 -4 -7 -26 -7 -49 0 -23 -3 -45 -7 -49 -5 -4 -8 -11 -9 -14 0 -4 -3 -14 -6 -22 -16 -43 -47 -138 -52 -160 -7 -32 -51 -80 -99 -108 -34 -20 -52 -22 -220 -23 -133 -1 -189 -6 -209 -16 -16 -7 -28 -17 -28 -22 0 -7 261 -6 395 2 68 5 121 32 154 81 25 37 101 231 116 297 7 28 -16 95 -28 83z"/> <path d="M1433 1525 c8 -24 56 -35 162 -35 126 0 155 6 155 29 0 15 -18 16 -160 16 -102 0 -159 -4 -157 -10z"/> <path d="M1483 1329 c-40 -36 -41 -49 -8 -49 18 0 28 7 36 27 17 47 7 55 -28 22z"/> <path d="M785 1240 c-16 -17 -30 -41 -30 -53 0 -21 -2 -22 -110 -18 -60 1 -113 5 -117 7 -4 3 -27 -6 -50 -18 l-43 -23 164 -3 c124 -2 168 1 177 10 13 15 48 117 42 124 -3 2 -17 -10 -33 -26z"/> </g> </svg> 